<svg xmlns="http://www.w3.org/2000/svg" viewBox="0 0 64 64">
  <circle cx="32" cy="32" r="30" fill="#3D6B4F"/>
  <path d="M14 42 V24 Q14 22 16 22 Q18 22 18 24 V26 Q19.5 22 23 22 Q26 22 27 25 Q28.5 22 32 22 Q36 22 36 27 V42 Q36 44 34 44 Q32 44 32 42 V28 Q32 26 30 26 Q28 26 28 28 V42 Q28 44 26 44 Q24 44 24 42 V28 Q24 26 22 26 Q20 26 20 28 V42 Q20 44 18 44 Q16 44 14 42 Z" fill="#FAF6EE"/>
  <path d="M40 18 V42 Q40 44 42 44 Q44 44 44 42 V36 Q45.5 39 48 39 Q52 39 52 33 Q52 27 48 27 Q45.5 27 44 30 V18 Q44 16 42 16 Q40 16 40 18 Z M44 33 Q44 31 46 31 Q48 31 48 33 Q48 35 46 35 Q44 35 44 33 Z" fill="#FAF6EE"/>
  <circle cx="55" cy="43" r="3" fill="#E8843D"/>
</svg>
